# Blender 4.3.2
# www.blender.org
mtllib table_1.mtl
o table_1
v 4.160329 7.821798 0.804690
v 3.261075 7.821798 0.804690
v 3.261075 8.371798 0.804690
v 4.160330 8.371798 0.804690
v 4.160329 7.821798 0.854690
v 3.261075 7.821798 0.854690
v 3.261075 8.371798 0.854690
v 4.160329 8.371798 0.854690
v 4.110240 7.821798 0.804690
v 4.110240 8.371798 0.804690
v 4.110240 7.821798 0.854690
v 4.110240 8.371798 0.854690
v 3.311085 7.821798 0.804690
v 3.311085 8.371798 0.804690
v 3.311085 7.821798 0.854690
v 3.311085 8.371798 0.854690
v 3.261075 8.321765 0.804690
v 4.160330 8.321765 0.804690
v 3.261075 8.321766 0.854690
v 4.160329 8.321765 0.854690
v 4.110240 8.321765 0.804690
v 4.110240 8.321765 0.854690
v 3.311085 8.321765 0.804690
v 3.311085 8.321766 0.854690
v 3.261075 7.872391 0.804690
v 4.160329 7.872391 0.804690
v 3.261075 7.872391 0.854690
v 4.160329 7.872391 0.854690
v 4.110240 7.872391 0.804690
v 4.110240 7.872391 0.854690
v 3.311085 7.872391 0.804690
v 3.311085 7.872391 0.854690
v 3.261075 7.872391 0.404690
v 3.311085 7.872391 0.404690
v 4.110240 7.872391 0.404690
v 4.160329 7.872391 0.404690
v 3.311085 7.821798 0.404690
v 4.110240 7.821798 0.404690
v 4.160329 7.821798 0.404690
v 3.261075 7.821798 0.404690
v 3.261075 8.321765 0.404690
v 3.311085 8.321765 0.404690
v 4.110240 8.321765 0.404690
v 4.160330 8.321765 0.404690
v 3.311085 8.371798 0.404690
v 4.110240 8.371798 0.404690
v 4.160330 8.371798 0.404690
v 3.261075 8.371798 0.404690
v 4.159023 7.870387 0.641315
v 3.262158 7.870387 0.641315
v 3.262158 8.324986 0.641315
v 4.159024 8.324986 0.641315
v 4.159023 7.870387 0.653763
v 3.262157 7.870387 0.653763
v 3.262158 8.324987 0.653763
v 4.159023 8.324986 0.653763
vn -0.0000 -1.0000 -0.0000
vn -0.0000 1.0000 -0.0000
vn -1.0000 -0.0000 -0.0000
vn 1.0000 -0.0000 -0.0000
vn -0.0000 -0.0000 1.0000
vn -0.0000 -0.0000 -1.0000
vt 0.029100 0.961571
vt 0.029100 0.988095
vt 0.005345 0.988095
vt 0.443623 0.961571
vt 0.443623 0.988095
vt 0.419868 0.961571
vt 0.005345 0.961571
vt 0.005345 0.538387
vt 0.029100 0.538387
vt 0.005345 0.511905
vt 0.029100 0.511905
vt 0.443623 0.511905
vt 0.443623 0.538387
vt 0.419868 0.538387
vt 0.780861 0.339584
vt 0.780861 0.313090
vt 0.804616 0.313090
vt 0.804616 0.272033
vt 0.804616 0.298528
vt 0.780861 0.272033
vt 0.006533 0.461571
vt 0.030303 0.461571
vt 0.006533 0.488095
vt 0.304672 0.461613
vt 0.280901 0.461613
vt 0.280902 0.038429
vt 0.006533 0.038387
vt 0.030303 0.038387
vt 0.006533 0.011905
vt 0.030303 0.011905
vt 0.780861 0.604336
vt 0.780861 0.577545
vt 0.804616 0.577545
vt 0.804616 0.339584
vt 0.804616 0.007281
vt 0.804616 0.034072
vt 0.780861 0.034072
vt 0.518169 0.038429
vt 0.304672 0.038429
vt 0.304672 0.011905
vt 0.243800 0.461571
vt 0.030303 0.488095
vt 0.267836 0.461571
vt 0.243800 0.488095
vt 0.542205 0.461613
vt 0.518168 0.461613
vt 0.518168 0.488095
vt 0.304672 0.488095
vt 0.243800 0.038387
vt 0.267836 0.038387
vt 0.243800 0.011905
vt 0.267836 0.011905
vt 0.523798 0.939517
vt 0.500039 0.939517
vt 0.500039 0.727702
vt 0.799909 0.828729
vt 0.776111 0.828729
vt 0.776111 0.616913
vt 0.449569 0.505295
vt 0.473605 0.505295
vt 0.473605 0.717111
vt 0.474807 0.505295
vt 0.498844 0.505295
vt 0.498844 0.717111
vt 0.994655 0.007281
vt 0.804616 0.604336
vt 0.994655 0.577545
vt 0.473612 0.939518
vt 0.449853 0.939518
vt 0.449853 0.727702
vt 0.523837 0.717111
vt 0.500040 0.717111
vt 0.500040 0.505295
vt 0.801098 0.616913
vt 0.824868 0.616913
vt 0.824868 0.828729
vt 0.474800 0.727702
vt 0.498571 0.727702
vt 0.498571 0.939518
vt 0.994655 0.272033
vt 0.994655 0.313090
vt 0.419868 0.511905
vt 0.229829 0.538387
vt 0.219139 0.511905
vt 0.419868 0.988095
vt 0.229829 0.988095
vt 0.219139 0.961571
vt 0.776110 0.889615
vt 0.776110 0.862824
vt 0.799870 0.862824
vt 0.776111 0.861485
vt 0.776111 0.834694
vt 0.799909 0.834694
vt 0.801058 0.889311
vt 0.801058 0.862817
vt 0.824817 0.862817
vt 0.776111 0.890948
vt 0.799881 0.890948
vt 0.799881 0.917473
vt 0.770117 0.510545
vt 0.770117 0.985471
vt 0.554137 0.985471
vt 0.770117 0.486799
vt 0.554137 0.486799
vt 0.554137 0.011873
vt 0.524580 0.511873
vt 0.530494 0.511873
vt 0.524580 0.986799
vt 0.542913 0.746747
vt 0.536999 0.746747
vt 0.542913 0.506018
vt 0.536704 0.986799
vt 0.530790 0.986799
vt 0.530790 0.511873
vt 0.825610 0.617636
vt 0.831524 0.617636
vt 0.831524 0.858364
vt 0.780861 0.298528
vt 0.780861 0.007281
vt 0.518169 0.011905
vt 0.267836 0.488095
vt 0.542205 0.038429
vt 0.523798 0.727702
vt 0.799909 0.616913
vt 0.449569 0.717111
vt 0.474807 0.717111
vt 0.994655 0.034072
vt 0.994655 0.604336
vt 0.473612 0.727702
vt 0.523837 0.505295
vt 0.801098 0.828729
vt 0.474800 0.939518
vt 0.994655 0.298528
vt 0.994655 0.339584
vt 0.229829 0.511905
vt 0.219139 0.538387
vt 0.229829 0.961571
vt 0.219139 0.988095
vt 0.799870 0.889615
vt 0.799909 0.861485
vt 0.824817 0.889311
vt 0.776111 0.917473
vt 0.554137 0.510545
vt 0.770117 0.011873
vt 0.530494 0.986799
vt 0.536999 0.506018
vt 0.536704 0.511873
vt 0.825610 0.858364
s 0
usemtl M_wood_black_painted
f 9/1/1 1/2/1 5/3/1
f 12/4/2 8/5/2 10/6/2
f 11/7/1 15/8/1 13/9/1
f 15/8/1 6/10/1 2/11/1
f 7/12/2 16/13/2 14/14/2
f 16/13/2 12/4/2 14/14/2
f 19/15/3 7/16/3 3/17/3
f 18/18/4 4/19/4 20/20/4
f 12/21/5 22/22/5 8/23/5
f 23/24/6 14/25/6 10/26/6
f 16/27/5 24/28/5 22/22/5
f 7/29/5 19/30/5 24/28/5
f 6/31/3 27/32/3 25/33/3
f 27/32/3 19/15/3 17/34/3
f 1/35/4 26/36/4 28/37/4
f 26/36/4 18/18/4 20/20/4
f 29/38/6 21/39/6 18/40/6
f 22/22/5 30/41/5 20/42/5
f 30/41/5 11/43/5 28/44/5
f 13/45/6 31/46/6 29/38/6
f 31/46/6 23/24/6 29/38/6
f 25/47/6 17/48/6 23/24/6
f 24/28/5 32/49/5 30/41/5
f 32/49/5 15/50/5 11/43/5
f 19/30/5 27/51/5 32/49/5
f 27/51/5 6/52/5 15/50/5
f 25/53/2 31/54/2 34/55/2
f 29/56/2 26/57/2 36/58/2
f 31/59/4 13/60/4 37/61/4
f 9/62/3 29/63/3 35/64/3
f 26/36/4 1/35/4 39/65/4
f 2/66/3 25/33/3 33/67/3
f 23/68/1 17/69/1 41/70/1
f 18/71/1 21/72/1 43/73/1
f 14/74/4 23/75/4 42/76/4
f 21/77/3 10/78/3 46/79/3
f 4/19/4 18/18/4 44/80/4
f 17/34/3 3/17/3 48/81/3
f 3/82/2 14/14/2 45/83/2
f 13/9/1 2/11/1 40/84/1
f 10/6/2 4/85/2 47/86/2
f 1/2/1 9/1/1 38/87/1
f 40/88/6 33/89/6 34/90/6
f 38/91/6 35/92/6 36/93/6
f 41/94/6 48/95/6 45/96/6
f 43/97/6 46/98/6 47/99/6
f 51/100/6 52/101/6 49/102/6
f 53/103/5 56/104/5 55/105/5
f 49/106/1 53/107/1 50/108/1
f 50/109/3 54/110/3 51/111/3
f 51/112/2 55/113/2 56/114/2
f 52/115/4 56/116/4 53/117/4
f 11/7/1 9/1/1 5/3/1
f 8/5/2 4/85/2 10/6/2
f 9/1/1 11/7/1 13/9/1
f 13/9/1 15/8/1 2/11/1
f 3/82/2 7/12/2 14/14/2
f 12/4/2 10/6/2 14/14/2
f 17/34/3 19/15/3 3/17/3
f 4/19/4 8/118/4 20/20/4
f 22/22/5 20/42/5 8/23/5
f 21/39/6 23/24/6 10/26/6
f 12/21/5 16/27/5 22/22/5
f 16/27/5 7/29/5 24/28/5
f 2/66/3 6/31/3 25/33/3
f 25/33/3 27/32/3 17/34/3
f 5/119/4 1/35/4 28/37/4
f 28/37/4 26/36/4 20/20/4
f 26/120/6 29/38/6 18/40/6
f 30/41/5 28/44/5 20/42/5
f 11/43/5 5/121/5 28/44/5
f 9/122/6 13/45/6 29/38/6
f 23/24/6 21/39/6 29/38/6
f 31/46/6 25/47/6 23/24/6
f 22/22/5 24/28/5 30/41/5
f 30/41/5 32/49/5 11/43/5
f 24/28/5 19/30/5 32/49/5
f 32/49/5 27/51/5 15/50/5
f 33/123/2 25/53/2 34/55/2
f 35/124/2 29/56/2 36/58/2
f 34/125/4 31/59/4 37/61/4
f 38/126/3 9/62/3 35/64/3
f 36/127/4 26/36/4 39/65/4
f 40/128/3 2/66/3 33/67/3
f 42/129/1 23/68/1 41/70/1
f 44/130/1 18/71/1 43/73/1
f 45/131/4 14/74/4 42/76/4
f 43/132/3 21/77/3 46/79/3
f 47/133/4 4/19/4 44/80/4
f 41/134/3 17/34/3 48/81/3
f 48/135/2 3/82/2 45/83/2
f 37/136/1 13/9/1 40/84/1
f 46/137/2 10/6/2 47/86/2
f 39/138/1 1/2/1 38/87/1
f 37/139/6 40/88/6 34/90/6
f 39/140/6 38/91/6 36/93/6
f 42/141/6 41/94/6 45/96/6
f 44/142/6 43/97/6 47/99/6
f 50/143/6 51/100/6 49/102/6
f 54/144/5 53/103/5 55/105/5
f 53/107/1 54/145/1 50/108/1
f 54/110/3 55/146/3 51/111/3
f 52/147/2 51/112/2 56/114/2
f 49/148/4 52/115/4 53/117/4
