# Blender 4.3.2
# www.blender.org
mtllib table_2.mtl
o table_2
v 7.661592 6.830358 0.050000
v 6.871593 6.830359 0.050000
v 6.871592 6.435359 0.050000
v 7.661592 6.435358 0.050000
v 7.661592 6.830358 0.000000
v 6.871592 6.830358 0.000000
v 6.871592 6.435359 -0.000000
v 7.661592 6.435359 -0.000000
v 7.661592 6.830358 0.790000
v 6.871593 6.830359 0.790000
v 6.871592 6.435359 0.790000
v 7.661592 6.435358 0.790000
v 7.661592 6.830358 0.740000
v 6.871592 6.830358 0.740000
v 6.871592 6.435359 0.740000
v 7.661592 6.435359 0.740000
v 7.661592 6.830358 0.740000
v 7.611592 6.830359 0.740000
v 7.611592 6.435359 0.740000
v 7.661592 6.435358 0.740000
v 7.661592 6.830358 0.050000
v 7.611592 6.830358 0.050000
v 7.611592 6.435359 0.050000
v 7.661592 6.435359 0.050000
v 6.921592 6.830358 0.740000
v 6.871592 6.830359 0.740000
v 6.871592 6.435359 0.740000
v 6.921592 6.435359 0.740000
v 6.921592 6.830358 0.050000
v 6.871592 6.830358 0.050000
v 6.871592 6.435359 0.050000
v 6.921592 6.435359 0.050000
v 7.274592 6.830358 0.740000
v 7.258592 6.830359 0.740000
v 7.258592 6.435359 0.740000
v 7.274592 6.435359 0.740000
v 7.274592 6.830358 0.050000
v 7.258592 6.830358 0.050000
v 7.258592 6.435359 0.050000
v 7.274592 6.435359 0.050000
v 7.611592 6.830358 0.403000
v 6.921592 6.830359 0.403000
v 6.921592 6.435359 0.403000
v 7.611592 6.435358 0.403000
v 7.611592 6.830358 0.387000
v 6.921592 6.830358 0.387000
v 6.921592 6.435359 0.387000
v 7.611592 6.435359 0.387000
vn 1.0000 -0.0000 -0.0000
vn -0.0000 1.0000 -0.0000
vn -1.0000 -0.0000 -0.0000
vn -0.0000 -1.0000 -0.0000
vn -0.0000 -0.0000 1.0000
vn -0.0000 -0.0000 -1.0000
vt 0.298475 0.859721
vt 0.276398 0.859721
vt 0.276398 0.686362
vt 0.298475 0.686362
vt 0.939356 0.008668
vt 0.961432 0.008668
vt 0.961432 0.355387
vt 0.939356 0.355387
vt 0.299578 0.686362
vt 0.321655 0.686362
vt 0.321655 0.859721
vt 0.299578 0.859721
vt 0.938252 0.719442
vt 0.916175 0.719442
vt 0.916175 0.372723
vt 0.938252 0.372723
vt 0.187485 0.008668
vt 0.361889 0.008668
vt 0.361889 0.355387
vt 0.187485 0.355387
vt 0.545014 0.008668
vt 0.545014 0.355387
vt 0.370609 0.355387
vt 0.370610 0.008668
vt 0.322759 0.686362
vt 0.344835 0.686362
vt 0.344835 0.859721
vt 0.322759 0.859721
vt 0.916175 0.008668
vt 0.938252 0.008668
vt 0.938252 0.355387
vt 0.916175 0.355387
vt 0.228934 0.859721
vt 0.206857 0.859721
vt 0.206857 0.686362
vt 0.228933 0.686362
vt 0.961432 0.719442
vt 0.939356 0.719442
vt 0.939356 0.372723
vt 0.961432 0.372723
vt 0.004360 0.008668
vt 0.178765 0.008668
vt 0.178765 0.355387
vt 0.004360 0.355387
vt 0.178764 0.372723
vt 0.178765 0.719442
vt 0.004360 0.719442
vt 0.004360 0.372723
vt 0.736859 0.628374
vt 0.736859 0.325543
vt 0.911263 0.325543
vt 0.911263 0.628374
vt 0.984613 0.007571
vt 0.984613 0.310402
vt 0.962536 0.310402
vt 0.962536 0.007571
vt 0.545014 0.371626
vt 0.545014 0.674457
vt 0.370609 0.674457
vt 0.370609 0.371626
vt 0.205753 0.689598
vt 0.205753 0.992429
vt 0.183677 0.992429
vt 0.183677 0.689598
vt 0.275294 0.686362
vt 0.275294 0.859721
vt 0.253218 0.859721
vt 0.253218 0.686362
vt 0.369120 0.686362
vt 0.391196 0.686362
vt 0.391196 0.859721
vt 0.369120 0.859721
vt 0.736859 0.310402
vt 0.736859 0.007571
vt 0.911263 0.007571
vt 0.911263 0.310402
vt 0.962536 0.946346
vt 0.962536 0.643515
vt 0.984613 0.643515
vt 0.984613 0.946346
vt 0.728139 0.325543
vt 0.728139 0.628374
vt 0.553734 0.628374
vt 0.553734 0.325543
vt 0.984613 0.325543
vt 0.984613 0.628374
vt 0.962536 0.628374
vt 0.962536 0.325543
vt 0.252114 0.686362
vt 0.252114 0.859721
vt 0.230037 0.859721
vt 0.230037 0.686362
vt 0.345939 0.686362
vt 0.368016 0.686362
vt 0.368016 0.859721
vt 0.345939 0.859721
vt 0.187485 0.674457
vt 0.187485 0.371626
vt 0.361889 0.371626
vt 0.361889 0.674457
vt 0.992759 0.310402
vt 0.992759 0.007571
vt 0.999823 0.007571
vt 0.999823 0.310402
vt 0.728139 0.007571
vt 0.728139 0.310402
vt 0.553734 0.310402
vt 0.553734 0.007571
vt 0.992406 0.325543
vt 0.992406 0.628374
vt 0.985341 0.628374
vt 0.985341 0.325543
vt 0.398989 0.686362
vt 0.398989 0.859721
vt 0.391925 0.859721
vt 0.391925 0.686362
vt 0.414178 0.686362
vt 0.421242 0.686362
vt 0.421242 0.859721
vt 0.414178 0.859721
vt 0.413825 0.859721
vt 0.406760 0.859721
vt 0.406760 0.686362
vt 0.413824 0.686362
vt 0.985341 0.007571
vt 0.992406 0.007571
vt 0.992406 0.310402
vt 0.985341 0.310401
vt 0.399342 0.686362
vt 0.406407 0.686362
vt 0.406407 0.859721
vt 0.399342 0.859721
vt 0.992406 0.946346
vt 0.985341 0.946346
vt 0.985341 0.643515
vt 0.992406 0.643516
vt 0.736859 0.643516
vt 0.911263 0.643516
vt 0.911263 0.946346
vt 0.736859 0.946346
vt 0.728139 0.643516
vt 0.728139 0.946346
vt 0.553734 0.946346
vt 0.553734 0.643516
s 0
usemtl M_wood_black_painted
f 5/1/1 1/2/1 4/3/1 8/4/1
f 1/5/2 5/6/2 6/7/2 2/8/2
f 7/9/3 3/10/3 2/11/3 6/12/3
f 8/13/4 4/14/4 3/15/4 7/16/4
f 4/17/5 1/18/5 2/19/5 3/20/5
f 8/21/6 7/22/6 6/23/6 5/24/6
f 13/25/1 9/26/1 12/27/1 16/28/1
f 9/29/2 13/30/2 14/31/2 10/32/2
f 15/33/3 11/34/3 10/35/3 14/36/3
f 16/37/4 12/38/4 11/39/4 15/40/4
f 12/41/5 9/42/5 10/43/5 11/44/5
f 16/45/6 15/46/6 14/47/6 13/48/6
f 21/49/1 17/50/1 20/51/1 24/52/1
f 17/53/2 21/54/2 22/55/2 18/56/2
f 23/57/3 19/58/3 18/59/3 22/60/3
f 24/61/4 20/62/4 19/63/4 23/64/4
f 20/65/5 17/66/5 18/67/5 19/68/5
f 24/69/6 23/70/6 22/71/6 21/72/6
f 29/73/1 25/74/1 28/75/1 32/76/1
f 25/77/2 29/78/2 30/79/2 26/80/2
f 31/81/3 27/82/3 26/83/3 30/84/3
f 32/85/4 28/86/4 27/87/4 31/88/4
f 28/89/5 25/90/5 26/91/5 27/92/5
f 32/93/6 31/94/6 30/95/6 29/96/6
f 37/97/1 33/98/1 36/99/1 40/100/1
f 33/101/2 37/102/2 38/103/2 34/104/2
f 39/105/3 35/106/3 34/107/3 38/108/3
f 40/109/4 36/110/4 35/111/4 39/112/4
f 36/113/5 33/114/5 34/115/5 35/116/5
f 40/117/6 39/118/6 38/119/6 37/120/6
f 45/121/1 41/122/1 44/123/1 48/124/1
f 41/125/2 45/126/2 46/127/2 42/128/2
f 47/129/3 43/130/3 42/131/3 46/132/3
f 48/133/4 44/134/4 43/135/4 47/136/4
f 44/137/5 41/138/5 42/139/5 43/140/5
f 48/141/6 47/142/6 46/143/6 45/144/6
