# Blender 4.3.2
# www.blender.org
mtllib table_3.mtl
o table_3.001
v 2.881435 6.091544 0.749788
v 2.769435 6.091544 0.749788
v 2.769435 6.090544 0.749788
v 2.881435 6.090544 0.749788
v 2.881435 6.091544 0.637788
v 2.769435 6.091544 0.637788
v 2.769435 6.090544 0.637788
v 2.881435 6.090544 0.637788
v 2.891435 6.093204 0.759788
v 2.759435 6.093204 0.759788
v 2.759435 6.091204 0.759788
v 2.891435 6.091204 0.759788
v 2.891435 6.093204 0.627788
v 2.759435 6.093204 0.627788
v 2.759435 6.091204 0.627788
v 2.891435 6.091204 0.627788
v 3.220434 6.488204 0.020166
v 2.430435 6.488204 0.020166
v 2.430435 6.093204 0.020166
v 3.220434 6.093204 0.020166
v 3.220434 6.488204 -0.029834
v 2.430435 6.488204 -0.029834
v 2.430435 6.093204 -0.029834
v 3.220435 6.093204 -0.029834
v 3.220434 6.488204 0.760166
v 2.430435 6.488204 0.760166
v 2.430435 6.093204 0.760166
v 3.220434 6.093204 0.760166
v 3.220434 6.488204 0.710166
v 2.430435 6.488204 0.710166
v 2.430435 6.093204 0.710166
v 3.220435 6.093204 0.710166
v 3.220434 6.488204 0.710166
v 3.170434 6.488204 0.710166
v 3.170435 6.093205 0.710166
v 3.220435 6.093204 0.710166
v 3.220434 6.488204 0.020166
v 3.170434 6.488204 0.020166
v 3.170435 6.093204 0.020166
v 3.220435 6.093204 0.020166
v 2.480434 6.488204 0.710166
v 2.430434 6.488204 0.710166
v 2.430435 6.093204 0.710166
v 2.480435 6.093204 0.710166
v 2.480434 6.488204 0.020166
v 2.430434 6.488204 0.020166
v 2.430435 6.093204 0.020166
v 2.480435 6.093204 0.020166
v 2.833435 6.488204 0.710166
v 2.817435 6.488204 0.710166
v 2.817435 6.093204 0.710166
v 2.833435 6.093204 0.710166
v 2.833435 6.488204 0.020166
v 2.817435 6.488204 0.020166
v 2.817435 6.093204 0.020166
v 2.833435 6.093204 0.020166
v 3.170434 6.488204 0.373166
v 2.480435 6.488204 0.373166
v 2.480435 6.093204 0.373166
v 3.170434 6.093204 0.373166
v 3.170434 6.488204 0.357166
v 2.480435 6.488204 0.357166
v 2.480435 6.093204 0.357166
v 3.170435 6.093204 0.357166
vn 1.0000 -0.0000 -0.0000
vn -0.0000 1.0000 -0.0000
vn -1.0000 -0.0000 -0.0000
vn -0.0000 -1.0000 -0.0000
vn -0.0000 -0.0001 1.0000
vn -0.0000 -0.0000 -1.0000
vn -0.0000 -0.0000 1.0000
vt 0.548900 0.683257
vt 0.548900 0.732412
vt 0.548458 0.732412
vt 0.548458 0.683257
vt 0.001236 0.778494
vt 0.001236 0.729339
vt 0.050688 0.729339
vt 0.050688 0.778494
vt 0.104300 0.729339
vt 0.104300 0.778494
vt 0.103859 0.778494
vt 0.103859 0.729339
vt 0.102612 0.778494
vt 0.053160 0.778494
vt 0.053160 0.729339
vt 0.102612 0.729339
vt 0.547531 0.683257
vt 0.547973 0.683257
vt 0.547973 0.732412
vt 0.547531 0.732412
vt 0.548436 0.683257
vt 0.548436 0.732412
vt 0.547995 0.732412
vt 0.547995 0.683257
vt 0.543833 0.741409
vt 0.543833 0.683476
vt 0.544716 0.683476
vt 0.544716 0.741409
vt 0.393205 0.741409
vt 0.393205 0.683476
vt 0.451487 0.683476
vt 0.451487 0.741409
vt 0.545688 0.741409
vt 0.545688 0.683476
vt 0.546571 0.683476
vt 0.546571 0.741409
vt 0.512683 0.741409
vt 0.454401 0.741409
vt 0.454401 0.683476
vt 0.512683 0.683476
vt 0.544760 0.683476
vt 0.545643 0.683476
vt 0.545643 0.741409
vt 0.544760 0.741409
vt 0.547498 0.683476
vt 0.547498 0.741409
vt 0.546615 0.741409
vt 0.546615 0.683476
vt 0.391196 0.859721
vt 0.369120 0.859721
vt 0.369120 0.686362
vt 0.391196 0.686362
vt 0.939356 0.008668
vt 0.961432 0.008668
vt 0.961432 0.355387
vt 0.939356 0.355387
vt 0.321655 0.859721
vt 0.299578 0.859721
vt 0.299578 0.686362
vt 0.321655 0.686362
vt 0.938252 0.719442
vt 0.916175 0.719442
vt 0.916175 0.372723
vt 0.938252 0.372723
vt 0.187485 0.008668
vt 0.361889 0.008668
vt 0.361889 0.355387
vt 0.187485 0.355387
vt 0.178764 0.372723
vt 0.178764 0.719442
vt 0.004360 0.719442
vt 0.004360 0.372723
vt 0.252114 0.859721
vt 0.230037 0.859721
vt 0.230037 0.686362
vt 0.252114 0.686362
vt 0.916175 0.008668
vt 0.938252 0.008668
vt 0.938252 0.355387
vt 0.916175 0.355387
vt 0.228933 0.859721
vt 0.206857 0.859721
vt 0.206857 0.686362
vt 0.228933 0.686362
vt 0.961432 0.719442
vt 0.939356 0.719442
vt 0.939356 0.372723
vt 0.961432 0.372723
vt 0.004360 0.008668
vt 0.178765 0.008668
vt 0.178764 0.355387
vt 0.004360 0.355387
vt 0.545014 0.008668
vt 0.545014 0.355387
vt 0.370609 0.355387
vt 0.370609 0.008668
vt 0.553734 0.946346
vt 0.553734 0.643516
vt 0.728138 0.643516
vt 0.728138 0.946346
vt 0.984613 0.007571
vt 0.984613 0.310402
vt 0.962536 0.310402
vt 0.962536 0.007571
vt 0.728138 0.325543
vt 0.728138 0.628374
vt 0.553734 0.628374
vt 0.553734 0.325543
vt 0.984612 0.643515
vt 0.984613 0.946346
vt 0.962536 0.946346
vt 0.962536 0.643515
vt 0.298475 0.686362
vt 0.298475 0.859721
vt 0.276398 0.859721
vt 0.276398 0.686362
vt 0.345939 0.686362
vt 0.368016 0.686362
vt 0.368016 0.859721
vt 0.345939 0.859721
vt 0.736859 0.310402
vt 0.736859 0.007571
vt 0.911263 0.007571
vt 0.911263 0.310402
vt 0.984613 0.325543
vt 0.984613 0.628374
vt 0.962536 0.628374
vt 0.962536 0.325543
vt 0.545014 0.371626
vt 0.545014 0.674457
vt 0.370609 0.674457
vt 0.370609 0.371626
vt 0.205753 0.689598
vt 0.205753 0.992429
vt 0.183677 0.992429
vt 0.183677 0.689598
vt 0.275294 0.686362
vt 0.275294 0.859721
vt 0.253218 0.859721
vt 0.253218 0.686362
vt 0.322759 0.686362
vt 0.344835 0.686362
vt 0.344835 0.859721
vt 0.322759 0.859721
vt 0.736859 0.628374
vt 0.736859 0.325543
vt 0.911263 0.325543
vt 0.911263 0.628374
vt 0.992759 0.310402
vt 0.992759 0.007571
vt 0.999823 0.007571
vt 0.999823 0.310402
vt 0.361889 0.371626
vt 0.361889 0.674457
vt 0.187485 0.674457
vt 0.187485 0.371626
vt 0.992406 0.325543
vt 0.992406 0.628374
vt 0.985341 0.628374
vt 0.985341 0.325543
vt 0.521381 0.686362
vt 0.521381 0.859721
vt 0.514317 0.859721
vt 0.514317 0.686362
vt 0.521735 0.686362
vt 0.528799 0.686362
vt 0.528799 0.859721
vt 0.521734 0.859721
vt 0.543634 0.859721
vt 0.536570 0.859721
vt 0.536570 0.686362
vt 0.543634 0.686362
vt 0.985341 0.007571
vt 0.992406 0.007571
vt 0.992406 0.310401
vt 0.985341 0.310401
vt 0.536217 0.859721
vt 0.529152 0.859721
vt 0.529152 0.686362
vt 0.536217 0.686362
vt 0.992406 0.946346
vt 0.985341 0.946346
vt 0.985341 0.643515
vt 0.992406 0.643515
vt 0.736859 0.643515
vt 0.911263 0.643515
vt 0.911263 0.946346
vt 0.736859 0.946346
vt 0.728138 0.007571
vt 0.728138 0.310401
vt 0.553734 0.310402
vt 0.553734 0.007571
s 0
usemtl M_wood_black_painted
f 5/1/1 1/2/1 4/3/1 8/4/1
f 1/5/2 5/6/2 6/7/2 2/8/2
f 7/9/3 3/10/3 2/11/3 6/12/3
f 8/13/4 4/14/4 3/15/4 7/16/4
f 4/17/5 1/18/5 2/19/5 3/20/5
f 8/21/6 7/22/6 6/23/6 5/24/6
f 13/25/1 9/26/1 12/27/1 16/28/1
f 9/29/2 13/30/2 14/31/2 10/32/2
f 15/33/3 11/34/3 10/35/3 14/36/3
f 16/37/4 12/38/4 11/39/4 15/40/4
f 12/41/7 9/42/7 10/43/7 11/44/7
f 16/45/6 15/46/6 14/47/6 13/48/6
f 21/49/1 17/50/1 20/51/1 24/52/1
f 17/53/2 21/54/2 22/55/2 18/56/2
f 23/57/3 19/58/3 18/59/3 22/60/3
f 24/61/4 20/62/4 19/63/4 23/64/4
f 20/65/7 17/66/7 18/67/7 19/68/7
f 24/69/6 23/70/6 22/71/6 21/72/6
f 29/73/1 25/74/1 28/75/1 32/76/1
f 25/77/2 29/78/2 30/79/2 26/80/2
f 31/81/3 27/82/3 26/83/3 30/84/3
f 32/85/4 28/86/4 27/87/4 31/88/4
f 28/89/7 25/90/7 26/91/7 27/92/7
f 32/93/6 31/94/6 30/95/6 29/96/6
f 37/97/1 33/98/1 36/99/1 40/100/1
f 33/101/2 37/102/2 38/103/2 34/104/2
f 39/105/3 35/106/3 34/107/3 38/108/3
f 40/109/4 36/110/4 35/111/4 39/112/4
f 36/113/7 33/114/7 34/115/7 35/116/7
f 40/117/6 39/118/6 38/119/6 37/120/6
f 45/121/1 41/122/1 44/123/1 48/124/1
f 41/125/2 45/126/2 46/127/2 42/128/2
f 47/129/3 43/130/3 42/131/3 46/132/3
f 48/133/4 44/134/4 43/135/4 47/136/4
f 44/137/7 41/138/7 42/139/7 43/140/7
f 48/141/6 47/142/6 46/143/6 45/144/6
f 53/145/1 49/146/1 52/147/1 56/148/1
f 49/149/2 53/150/2 54/151/2 50/152/2
f 55/153/3 51/154/3 50/155/3 54/156/3
f 56/157/4 52/158/4 51/159/4 55/160/4
f 52/161/7 49/162/7 50/163/7 51/164/7
f 56/165/6 55/166/6 54/167/6 53/168/6
f 61/169/1 57/170/1 60/171/1 64/172/1
f 57/173/2 61/174/2 62/175/2 58/176/2
f 63/177/3 59/178/3 58/179/3 62/180/3
f 64/181/4 60/182/4 59/183/4 63/184/4
f 60/185/7 57/186/7 58/187/7 59/188/7
f 64/189/6 63/190/6 62/191/6 61/192/6
